<mxfile host="app.diagrams.net" modified="2024-08-23T18:35:54.429Z" agent="Mozilla/5.0 (Windows NT 10.0; Win64; x64) AppleWebKit/537.36 (KHTML, like Gecko) Chrome/126.0.0.0 Safari/537.36 OPR/112.0.0.0" version="24.3.1" etag="miOxU9qy1PFP8tyTAK8J" type="github">
  <diagram name="PÃ¡gina-1" id="-N8FYXxLJEmQQaf9eXn2">
    <mxGraphModel>
      <root>
        <mxCell id="0" />
        <mxCell id="1" parent="0" />
      </root>
    </mxGraphModel>
  </diagram>
</mxfile>
